# xmcd
#
# Track frame offsets:
#	150
#	14316
#	26893
#	39964
#	53731
#	67556
#	79222
#	95230
#	110787
#	125408
#	137821
#	149985
#	163121
#	176312
#	189038
#	200963
#	213701
#	226696
#	239295
#	252934
#
# Disc length: 3559 seconds
# Revision: 0
# Processed by: cddbd v1.5.2PL0 Copyright (c) Steve Scherf et al.
# Submitted via: dBpowerAMP V12.0
#
DISCID=210de514
DTITLE=The Carter Family - The Essential Carter Family [Disc 2]
DYEAR=2013
DGENRE=Country
TTITLE0=On The Rock Where Moses Stood
TTITLE1=Lonesome For You
TTITLE2=Can't Feel at Home
TTITLE3=Where We'll Never Grow Old
TTITLE4=The Winding Stream
TTITLE5=I Never Will Marry
TTITLE6=Gold Watch And Chain
TTITLE7=It'll Aggravate Your Soul
TTITLE8=I'll be All Smiles Tonight
TTITLE9=The East Virginia Blues
TTITLE10=I'm Working on a Building
TTITLE11=Sad And Lonesome Day
TTITLE12=Gospel Ship
TTITLE13=There'll be no Distinction There
TTITLE14=Black Jack David
TTITLE15=Bear Creek Blues
TTITLE16=You've Got to Righten That Wrong
TTITLE17=Fifty Miles of Elbow Room
TTITLE18=Keep on The Firing Line
TTITLE19=Can The Circle be Unbroken
EXTD=
EXTT0=
EXTT1=
EXTT2=
EXTT3=
EXTT4=
EXTT5=
EXTT6=
EXTT7=
EXTT8=
EXTT9=
EXTT10=
EXTT11=
EXTT12=
EXTT13=
EXTT14=
EXTT15=
EXTT16=
EXTT17=
EXTT18=
EXTT19=
PLAYORDER=
